<?xml version="1.0" encoding="UTF-8"?>
<svg version="1.1" xmlns="http://www.w3.org/2000/svg" width="48" height="48">
<path d="M0 0 C5.01791684 2.41935276 8.49958655 5.9991731 11 11 C12.74614448 21.71497748 8.019539 30.0833079 2.1875 38.66796875 C-1.89154643 43.81230186 -1.89154643 43.81230186 -5.9296875 44.49609375 C-11.07518913 43.6646959 -12.85870717 40.11598345 -15.875 36.13671875 C-21.24085804 28.21615991 -24.67836163 20.72828132 -23 11 C-17.99792118 0.81058019 -10.52954659 -0.99231329 0 0 Z " fill="#FAA56B" transform="translate(30,2)"/>
<path d="M0 0 C3.70390021 2.02666238 5.65363011 3.48044516 8 7 C8.48256365 11.26264558 8.26873267 13.49132744 6.25 17.3125 C3.04340948 21.14259424 1.50448865 21.83587397 -3.4375 22.375 C-7.62750939 21.93394638 -9.093893 20.98913863 -12 18 C-14.52599898 14.51171569 -14.50729677 11.20331607 -14 7 C-10.36777456 0.95079183 -6.93852122 -0.5782101 0 0 Z " fill="#F4A26B" transform="translate(27,8)"/>
<path d="M0 0 C3.70390021 2.02666238 5.65363011 3.48044516 8 7 C8.48256365 11.26264558 8.26873267 13.49132744 6.25 17.3125 C3.04340948 21.14259424 1.50448865 21.83587397 -3.4375 22.375 C-7.62750939 21.93394638 -9.093893 20.98913863 -12 18 C-14.52599898 14.51171569 -14.50729677 11.20331607 -14 7 C-10.36777456 0.95079183 -6.93852122 -0.5782101 0 0 Z M-11 6 C-12.42662219 8.85324437 -12.31033868 10.83454549 -12 14 C-10.20006226 16.69990662 -8.916227 18.5418865 -6 20 C-2.12785818 20.43023798 -0.47503629 20.31669086 2.8125 18.125 C5.39266816 15.61855093 5.91717964 14.74538327 6.3125 11.1875 C5.92835642 7.2692355 4.70743683 5.78706733 2 3 C-3.2981842 0.3509079 -7.0084938 2.12253683 -11 6 Z " fill="#4A5062" transform="translate(27,8)"/>
<path d="M0 0 C0.99 0 1.98 0 3 0 C3 0.66 3 1.32 3 2 C2.01 2.66 1.02 3.32 0 4 C-0.33 4.99 -0.66 5.98 -1 7 C-1.66 7 -2.32 7 -3 7 C-2.25 2.25 -2.25 2.25 0 0 Z " fill="#535562" transform="translate(21,13)"/>
</svg>
